<svg width="50" height="50" viewBox="0 0 50 50" fill="none" xmlns="http://www.w3.org/2000/svg">
<path d="M26.0576 1.429C21.137 2.67412 18.1777 7.90605 21.0954 12.2903C23.2904 15.5885 25.4867 18.2637 21.9499 20.011C19.6693 21.138 17.0644 18.4042 17.4455 15.1985C17.9154 11.2449 15.6188 7.39316 12.9411 6.58643C17.4564 16.979 8.69696 23.8714 10.5456 14.1151C7.58797 15.6869 7.34403 19.8785 9.44696 26.0995C5.50438 24.4198 4.06903 19.5793 5.70848 14.3257C2.20594 17.0942 0.503403 27.1093 4.28016 32.2427C13.6174 44.9335 24.5286 48.0842 26.4665 48.0842C28.5313 48.0842 37.9249 44.7916 44.9815 36.8415C49.0618 32.2444 49.9548 20.3474 45.8819 13.0468C46.4659 15.5209 45.2845 20.5454 42.5767 22.2296C43.0648 16.5876 42.1946 8.46553 38.9937 5.47861C42.1795 22.3538 29.9107 20.3421 34.2697 15.1983C37.1515 11.7975 34.2531 5.18857 32.5607 4.22422C33.6246 8.3375 31.1701 11.0285 27.217 10.2238C24.5556 9.68213 22.8475 5.8335 26.0575 1.42871L26.0576 1.429ZM14.8118 22.0804H16.6368V38.2118L26.668 43.6623L36.6989 38.2118V22.0833H38.5241V39.2981L38.0448 39.5576L27.1013 45.4995L26.6679 45.7376L26.2315 45.4995L15.2878 39.5575L14.8118 39.2982V22.0802V22.0804ZM18.4768 22.1016L25.6578 26.4504V40.9341L18.4768 36.8874V22.1015V22.1016ZM34.8557 22.1016V36.8874L27.4827 41.0439V26.5692L34.8557 22.1015V22.1016Z" fill="#FF0000"/>
</svg>
