<svg width="40" height="40" viewBox="0 0 40 40" fill="none" xmlns="http://www.w3.org/2000/svg">
<path d="M20.6238 0.000251198C16.3804 1.06775 13.8284 5.55334 16.3445 9.3122C18.2375 12.1399 20.1315 14.4334 17.0814 15.9315C15.1147 16.8977 12.8683 14.5539 13.1969 11.8055C13.6022 8.41591 11.6217 5.11362 9.31243 4.42196C13.2064 13.332 5.65237 19.2412 7.24659 10.8767C4.696 12.2243 4.48563 15.8179 6.29915 21.1515C2.89915 19.7114 1.66133 15.5614 3.07516 11.0572C0.0546434 13.4308 -1.41359 22.0172 1.84341 26.4183C9.89563 37.2988 19.3053 40 20.9765 40C22.7571 40 30.858 37.1771 36.9435 30.3611C40.4622 26.4198 41.2323 16.2199 37.7199 9.96073C38.2236 12.0819 37.2048 16.3897 34.8696 17.8336C35.2905 12.9965 34.5401 6.03301 31.7797 3.47218C34.527 17.9401 23.9467 16.2154 27.7058 11.8054C30.191 8.88963 27.6915 3.22351 26.232 2.39672C27.1495 5.92324 25.0328 8.23038 21.6237 7.54048C19.3286 7.07606 17.8556 3.77644 20.6238 0L20.6238 0.000251198ZM10.9257 17.7057H12.4995V31.5359L21.1503 36.2089L29.8007 31.5359V17.7082H31.3747V32.4673L30.9614 32.6898L21.5239 37.784L21.1501 37.9882L20.7738 37.784L11.3362 32.6897L10.9257 32.4674V17.7055V17.7057ZM14.0863 17.7238L20.2791 21.4523V33.8699L14.0863 30.4005V17.7238V17.7238ZM28.2112 17.7238V30.4005L21.8528 33.9641V21.5542L28.2112 17.7238V17.7238Z" fill="#E0AB0F"/>
</svg>
