<svg width="26" height="28" viewBox="0 0 26 28" fill="none" xmlns="http://www.w3.org/2000/svg">
<path d="M13.0015 0.224611C5.81812 0.221526 0 6.39593 0 14.0168C0 20.0431 3.63959 25.1659 8.7083 27.0472C9.39091 27.2291 9.28634 26.7141 9.28634 26.3625V23.9723C5.34466 24.4627 5.1849 21.6932 4.92057 21.2305C4.3861 20.2621 3.12256 20.0154 3.50017 19.5528C4.39772 19.0624 5.3127 19.6761 6.37292 21.3385C7.13976 22.5444 8.63568 22.3408 9.39381 22.1403C9.55938 21.4156 9.91375 20.7679 10.4017 20.2652C6.31773 19.488 4.61557 16.8418 4.61557 13.696C4.61557 12.1694 5.08904 10.7661 6.01855 9.63425C5.42599 7.76836 6.07374 6.17079 6.16088 5.93331C7.84851 5.77294 9.60295 7.2163 9.73947 7.33042C10.698 7.05593 11.7931 6.91098 13.0189 6.91098C14.2505 6.91098 15.3485 7.0621 16.3157 7.33967C16.644 7.07443 18.2706 5.83462 19.8391 5.98574C19.9234 6.22322 20.5566 7.78378 19.9989 9.625C20.94 10.76 21.4193 12.1756 21.4193 13.7053C21.4193 16.8573 19.7055 19.5065 15.6099 20.2714C15.9607 20.6377 16.2392 21.0745 16.4292 21.5564C16.6193 22.0383 16.7169 22.5555 16.7166 23.0779V26.5476C16.7398 26.8251 16.7166 27.0996 17.1523 27.0996C22.2965 25.2584 26 20.0987 26 14.0199C26 6.39593 20.179 0.224611 13.0015 0.224611Z" fill="black"/>
</svg>
