<svg width="29" height="33" viewBox="0 0 29 33" fill="none" xmlns="http://www.w3.org/2000/svg">
<path d="M27.1884 16.4277C27.1884 15.3064 27.102 14.488 26.9151 13.6394H14.7598V18.7009H21.8947C21.7509 19.9588 20.974 21.8532 19.2478 23.1261L19.2236 23.2955L23.0669 26.4321L23.3332 26.4601C25.7786 24.0809 27.1884 20.5801 27.1884 16.4277Z" fill="#4285F4"/>
<path d="M14.7598 29.7639C18.2553 29.7639 21.1897 28.5516 23.3332 26.4602L19.2478 23.1261C18.1546 23.9294 16.6873 24.49 14.7598 24.49C11.3362 24.49 8.43051 22.1109 7.3947 18.8223L7.24288 18.8358L3.2466 22.0941L3.19434 22.2471C5.32328 26.7027 9.69631 29.7639 14.7598 29.7639Z" fill="#34A853"/>
<path d="M7.39478 18.8224C7.12147 17.9738 6.96329 17.0644 6.96329 16.1249C6.96329 15.1852 7.12147 14.276 7.3804 13.4274L7.37315 13.2466L3.32679 9.93604L3.19441 10.0024C2.31697 11.8512 1.81348 13.9275 1.81348 16.1249C1.81348 18.3222 2.31697 20.3983 3.19441 22.2472L7.39478 18.8224Z" fill="#FBBC05"/>
<path d="M14.7599 7.75957C17.1909 7.75957 18.8307 8.86586 19.7658 9.79034L23.4195 6.032C21.1756 3.8346 18.2554 2.48584 14.7599 2.48584C9.69631 2.48584 5.32329 5.54703 3.19434 10.0024L7.38034 13.4274C8.43054 10.1389 11.3362 7.75957 14.7599 7.75957Z" fill="#EB4335"/>
</svg>
