<svg xmlns="http://www.w3.org/2000/svg" width="2048" height="1256" viewBox="0 0 2048 1256">
<rect width="100%" height="100%" fill="#ffffff"/>
<path d="M 1196 790 L 1193 793 L 1188 793 L 1183 796 L 1177 797 L 1173 800 L 1170 800 L 1168 802 L 1164 803 L 1160 806 L 1157 806 L 1152 810 L 1150 810 L 1147 813 L 1145 813 L 1139 818 L 1133 821 L 1117 834 L 1116 834 L 1095 855 L 1095 856 L 1089 862 L 1084 870 L 1080 874 L 1080 876 L 1077 879 L 1073 885 L 1073 887 L 1070 890 L 1068 895 L 1066 897 L 1066 899 L 1063 903 L 1063 906 L 1061 908 L 1060 912 L 1056 918 L 1056 921 L 1053 924 L 1053 929 L 1051 931 L 1050 937 L 1046 947 L 1046 952 L 1044 955 L 1044 958 L 1043 959 L 1043 967 L 1042 968 L 1041 977 L 1040 978 L 1040 992 L 1039 993 L 1039 1023 L 1040 1024 L 1040 1042 L 1041 1043 L 1041 1047 L 1042 1048 L 1042 1052 L 1043 1053 L 1043 1062 L 1046 1067 L 1047 1077 L 1049 1080 L 1050 1087 L 1053 1092 L 1053 1095 L 1056 1099 L 1056 1102 L 1059 1106 L 1059 1108 L 1063 1114 L 1063 1116 L 1066 1119 L 1066 1122 L 1070 1126 L 1070 1128 L 1077 1137 L 1081 1144 L 1089 1152 L 1090 1155 L 1104 1169 L 1110 1173 L 1121 1183 L 1123 1183 L 1126 1186 L 1135 1191 L 1138 1194 L 1140 1194 L 1142 1196 L 1153 1201 L 1155 1203 L 1160 1204 L 1164 1207 L 1167 1207 L 1171 1210 L 1176 1210 L 1180 1213 L 1185 1213 L 1190 1216 L 1202 1217 L 1208 1220 L 1216 1220 L 1224 1223 L 1248 1223 L 1249 1224 L 1299 1224 L 1300 1223 L 1318 1223 L 1326 1220 L 1336 1220 L 1342 1217 L 1353 1216 L 1357 1213 L 1364 1213 L 1369 1210 L 1373 1210 L 1378 1207 L 1382 1207 L 1389 1203 L 1392 1203 L 1394 1201 L 1401 1198 L 1403 1196 L 1405 1196 L 1407 1194 L 1417 1189 L 1420 1186 L 1422 1186 L 1425 1184 L 1430 1179 L 1438 1174 L 1455 1158 L 1455 1157 L 1464 1148 L 1466 1144 L 1473 1136 L 1474 1133 L 1480 1125 L 1480 1123 L 1486 1115 L 1486 1113 L 1489 1109 L 1490 1104 L 1493 1101 L 1493 1099 L 1496 1094 L 1496 1090 L 1500 1082 L 1500 1077 L 1503 1073 L 1503 1067 L 1506 1061 L 1506 1053 L 1509 1045 L 1509 1037 L 1510 1036 L 1510 1019 L 1511 1018 L 1511 1005 L 1510 1004 L 1510 984 L 1509 983 L 1508 971 L 1506 966 L 1506 958 L 1503 952 L 1503 944 L 1500 940 L 1500 936 L 1497 930 L 1496 924 L 1493 920 L 1493 917 L 1490 913 L 1490 911 L 1485 901 L 1483 899 L 1483 897 L 1480 894 L 1480 891 L 1476 887 L 1471 878 L 1467 874 L 1466 871 L 1463 867 L 1441 844 L 1440 844 L 1425 830 L 1421 828 L 1411 820 L 1408 819 L 1405 816 L 1403 816 L 1395 810 L 1393 810 L 1389 807 L 1387 807 L 1383 804 L 1379 803 L 1377 801 L 1373 800 L 1368 797 L 1362 796 L 1358 793 L 1352 793 L 1346 790 L 1340 790 L 1335 787 L 1324 786 L 1321 784 L 1318 784 L 1317 783 L 1303 783 L 1302 782 L 1297 782 L 1296 781 L 1291 781 L 1290 780 L 1252 780 L 1251 781 L 1246 781 L 1241 783 L 1227 783 L 1226 784 L 1222 784 L 1218 786 L 1208 787 L 1203 790 Z M 1257 885 L 1285 885 L 1293 888 L 1299 888 L 1303 891 L 1307 891 L 1314 895 L 1316 895 L 1320 898 L 1322 898 L 1330 905 L 1332 905 L 1347 920 L 1350 925 L 1355 930 L 1356 933 L 1361 940 L 1361 942 L 1365 948 L 1366 953 L 1368 955 L 1368 959 L 1371 964 L 1371 967 L 1372 968 L 1372 973 L 1375 979 L 1375 993 L 1376 994 L 1376 999 L 1377 1000 L 1377 1015 L 1376 1016 L 1376 1021 L 1375 1022 L 1375 1033 L 1372 1040 L 1371 1049 L 1369 1051 L 1368 1057 L 1365 1062 L 1365 1065 L 1363 1067 L 1361 1072 L 1356 1078 L 1352 1085 L 1337 1100 L 1334 1101 L 1326 1108 L 1323 1109 L 1319 1112 L 1317 1112 L 1312 1115 L 1307 1116 L 1304 1118 L 1297 1118 L 1296 1119 L 1293 1119 L 1288 1121 L 1267 1122 L 1266 1121 L 1257 1121 L 1254 1119 L 1250 1119 L 1249 1118 L 1243 1118 L 1238 1115 L 1234 1115 L 1230 1112 L 1227 1112 L 1222 1108 L 1220 1108 L 1207 1099 L 1192 1083 L 1191 1080 L 1185 1073 L 1184 1069 L 1181 1066 L 1181 1063 L 1178 1059 L 1177 1053 L 1174 1048 L 1174 1043 L 1171 1038 L 1171 1030 L 1170 1029 L 1170 1024 L 1169 1023 L 1169 1019 L 1168 1018 L 1168 988 L 1171 980 L 1171 971 L 1174 966 L 1175 957 L 1178 953 L 1178 949 L 1181 944 L 1181 941 L 1184 938 L 1185 934 L 1191 925 L 1211 904 L 1215 902 L 1224 895 L 1229 894 L 1231 892 L 1237 891 L 1243 888 L 1249 888 Z " fill="#000000" fill-rule="evenodd"/>
<path d="M 642 800 L 638 803 L 636 803 L 620 811 L 618 813 L 616 813 L 614 815 L 609 817 L 602 823 L 600 823 L 596 827 L 581 838 L 561 858 L 550 873 L 545 878 L 545 880 L 539 888 L 539 890 L 535 894 L 535 897 L 532 900 L 532 902 L 530 904 L 528 908 L 528 910 L 525 914 L 525 917 L 522 921 L 522 924 L 519 929 L 519 932 L 516 937 L 515 946 L 512 951 L 512 959 L 509 965 L 509 973 L 508 974 L 507 990 L 506 991 L 506 1031 L 508 1036 L 509 1054 L 512 1062 L 512 1069 L 515 1074 L 516 1082 L 518 1084 L 519 1090 L 522 1095 L 522 1099 L 524 1101 L 525 1105 L 529 1110 L 529 1113 L 532 1116 L 532 1119 L 536 1123 L 539 1130 L 542 1133 L 542 1135 L 549 1143 L 552 1148 L 568 1165 L 579 1173 L 590 1183 L 592 1183 L 599 1189 L 604 1191 L 606 1193 L 611 1195 L 613 1197 L 615 1197 L 617 1199 L 625 1203 L 627 1203 L 632 1206 L 635 1206 L 642 1210 L 646 1210 L 651 1213 L 656 1213 L 662 1216 L 672 1217 L 680 1220 L 688 1220 L 696 1223 L 716 1223 L 717 1224 L 734 1224 L 735 1225 L 741 1225 L 742 1224 L 788 1223 L 789 1222 L 794 1222 L 795 1221 L 800 1221 L 801 1220 L 808 1220 L 816 1217 L 828 1216 L 830 1214 L 832 1214 L 833 1213 L 838 1213 L 839 1212 L 841 1212 L 843 1210 L 848 1210 L 853 1207 L 858 1206 L 862 1203 L 866 1202 L 868 1200 L 871 1200 L 874 1197 L 877 1197 L 882 1193 L 884 1193 L 886 1191 L 891 1189 L 897 1184 L 900 1183 L 908 1177 L 919 1167 L 920 1167 L 935 1152 L 939 1146 L 944 1141 L 958 1120 L 960 1115 L 962 1113 L 963 1109 L 966 1105 L 966 1103 L 969 1099 L 969 1096 L 972 1092 L 972 1088 L 975 1083 L 976 1076 L 979 1070 L 979 1065 L 982 1059 L 982 1050 L 985 1042 L 985 984 L 982 976 L 982 967 L 979 959 L 979 954 L 978 953 L 978 950 L 976 947 L 975 940 L 972 935 L 972 930 L 969 926 L 968 920 L 966 918 L 965 914 L 963 912 L 962 908 L 955 896 L 955 894 L 949 887 L 949 885 L 934 865 L 901 833 L 893 828 L 889 824 L 880 819 L 877 816 L 873 815 L 866 810 L 862 809 L 860 807 L 856 806 L 854 804 L 852 804 L 846 800 L 843 800 L 839 797 L 832 796 L 828 793 L 822 793 L 817 790 L 812 790 L 805 787 L 799 787 L 798 786 L 795 786 L 790 784 L 786 784 L 785 783 L 774 783 L 773 782 L 763 781 L 762 780 L 726 780 L 725 781 L 720 781 L 716 783 L 702 783 L 701 784 L 696 784 L 688 787 L 681 787 L 678 789 L 676 789 L 675 790 L 670 790 L 665 793 L 660 793 L 656 796 L 653 796 L 645 800 Z M 725 885 L 758 885 L 766 888 L 771 888 L 776 891 L 782 892 L 784 894 L 788 895 L 792 898 L 794 898 L 804 905 L 817 917 L 820 922 L 828 931 L 831 937 L 834 940 L 834 943 L 837 947 L 837 950 L 840 954 L 840 956 L 841 957 L 841 961 L 844 966 L 844 973 L 847 978 L 847 992 L 848 993 L 848 1020 L 847 1021 L 847 1030 L 844 1037 L 844 1043 L 843 1044 L 843 1046 L 841 1048 L 841 1052 L 838 1056 L 837 1062 L 834 1066 L 834 1069 L 831 1072 L 826 1081 L 816 1091 L 816 1092 L 801 1105 L 799 1105 L 795 1109 L 793 1109 L 789 1112 L 786 1112 L 784 1114 L 779 1115 L 774 1118 L 763 1119 L 762 1120 L 752 1121 L 751 1122 L 730 1122 L 729 1121 L 725 1121 L 721 1119 L 712 1118 L 709 1116 L 703 1115 L 698 1112 L 696 1112 L 691 1108 L 689 1108 L 682 1102 L 680 1102 L 672 1095 L 672 1094 L 666 1088 L 666 1087 L 661 1082 L 659 1078 L 656 1075 L 656 1073 L 651 1066 L 650 1061 L 647 1057 L 647 1053 L 646 1052 L 646 1050 L 644 1048 L 643 1038 L 640 1032 L 640 1021 L 639 1020 L 640 978 L 643 970 L 644 961 L 646 959 L 646 957 L 647 956 L 647 952 L 649 950 L 650 945 L 653 941 L 657 932 L 667 918 L 690 898 L 692 898 L 695 895 L 699 894 L 703 891 L 706 891 L 711 888 L 719 888 Z " fill="#000000" fill-rule="evenodd"/>
<path d="M 480 657 L 480 659 L 481 660 L 481 691 L 483 693 L 678 693 L 679 694 L 692 694 L 693 695 L 706 695 L 707 696 L 722 696 L 723 697 L 733 698 L 734 699 L 748 699 L 751 701 L 754 701 L 755 702 L 763 702 L 764 703 L 767 703 L 770 705 L 782 706 L 788 709 L 792 709 L 798 712 L 802 712 L 808 715 L 815 716 L 819 719 L 823 719 L 828 722 L 831 722 L 835 725 L 841 726 L 845 729 L 848 729 L 850 731 L 854 732 L 866 739 L 868 739 L 871 742 L 874 743 L 876 745 L 878 745 L 881 748 L 891 753 L 906 763 L 910 767 L 917 771 L 925 779 L 926 779 L 932 785 L 940 791 L 960 811 L 963 816 L 974 828 L 993 855 L 993 857 L 997 861 L 997 863 L 1003 872 L 1004 875 L 1010 882 L 1014 882 L 1018 878 L 1022 870 L 1025 867 L 1025 864 L 1029 860 L 1029 858 L 1035 850 L 1035 848 L 1047 832 L 1051 825 L 1062 813 L 1065 808 L 1088 784 L 1096 779 L 1108 768 L 1126 756 L 1130 752 L 1138 748 L 1141 745 L 1145 744 L 1157 736 L 1159 736 L 1165 732 L 1169 731 L 1171 729 L 1175 729 L 1181 725 L 1183 725 L 1188 722 L 1191 722 L 1196 719 L 1200 719 L 1205 716 L 1212 715 L 1214 713 L 1216 713 L 1217 712 L 1223 712 L 1228 709 L 1234 709 L 1240 706 L 1251 705 L 1258 702 L 1266 702 L 1270 700 L 1275 700 L 1276 699 L 1289 699 L 1290 698 L 1298 697 L 1299 696 L 1327 695 L 1328 694 L 1333 694 L 1334 693 L 1550 693 L 1551 692 L 1552 693 L 1554 693 L 1556 695 L 1556 1209 L 1555 1211 L 1557 1213 L 1688 1213 L 1689 1212 L 1689 1016 L 1688 1014 L 1692 1011 L 1694 1013 L 1694 1015 L 1696 1017 L 1697 1020 L 1704 1027 L 1710 1036 L 1720 1047 L 1720 1049 L 1730 1060 L 1733 1066 L 1740 1073 L 1746 1082 L 1756 1093 L 1756 1095 L 1768 1108 L 1773 1116 L 1780 1123 L 1785 1131 L 1790 1136 L 1796 1145 L 1801 1150 L 1804 1155 L 1817 1170 L 1822 1178 L 1827 1183 L 1833 1192 L 1838 1197 L 1843 1205 L 1850 1213 L 1994 1213 L 1995 1212 L 1994 1208 L 1991 1205 L 1989 1201 L 1977 1188 L 1972 1180 L 1961 1168 L 1959 1164 L 1950 1154 L 1948 1150 L 1935 1136 L 1934 1133 L 1923 1121 L 1921 1117 L 1911 1106 L 1904 1096 L 1897 1089 L 1889 1078 L 1878 1066 L 1873 1058 L 1862 1046 L 1859 1041 L 1848 1029 L 1848 1027 L 1840 1019 L 1829 1004 L 1820 995 L 1818 991 L 1812 984 L 1812 983 L 1837 959 L 1837 958 L 1886 909 L 1886 908 L 1892 903 L 1892 902 L 1956 836 L 1956 835 L 1966 826 L 1966 825 L 1985 806 L 1993 795 L 1992 794 L 1847 794 L 1832 809 L 1827 816 L 1809 835 L 1804 842 L 1780 867 L 1774 876 L 1763 887 L 1763 888 L 1756 895 L 1756 896 L 1744 909 L 1744 910 L 1732 922 L 1732 923 L 1721 935 L 1721 936 L 1709 948 L 1706 953 L 1695 965 L 1695 966 L 1691 969 L 1688 966 L 1689 964 L 1689 655 L 1688 654 L 1592 654 L 1591 655 L 1582 655 L 1581 654 L 1579 655 L 1578 654 L 1568 654 L 1567 655 L 1498 655 L 1497 654 L 1495 655 L 1345 655 L 1344 656 L 1313 657 L 1312 658 L 1303 658 L 1302 659 L 1297 659 L 1296 660 L 1277 661 L 1269 664 L 1259 664 L 1251 667 L 1243 667 L 1242 668 L 1238 668 L 1235 670 L 1225 671 L 1220 674 L 1214 674 L 1209 677 L 1204 677 L 1203 678 L 1201 678 L 1199 680 L 1191 681 L 1186 684 L 1183 684 L 1178 687 L 1174 687 L 1170 690 L 1167 690 L 1160 694 L 1158 694 L 1154 697 L 1151 697 L 1149 699 L 1142 702 L 1140 704 L 1137 704 L 1135 706 L 1131 707 L 1128 710 L 1125 711 L 1123 713 L 1121 713 L 1118 716 L 1113 718 L 1107 723 L 1105 723 L 1102 726 L 1091 733 L 1083 740 L 1079 742 L 1074 747 L 1064 754 L 1056 762 L 1055 762 L 1027 791 L 1021 800 L 1016 805 L 1014 808 L 1014 810 L 1011 813 L 1008 810 L 1008 808 L 1006 805 L 995 793 L 992 788 L 966 762 L 965 762 L 957 754 L 952 751 L 944 743 L 938 740 L 934 736 L 923 729 L 917 724 L 915 724 L 911 720 L 909 720 L 894 710 L 892 710 L 888 707 L 886 707 L 884 705 L 880 703 L 878 703 L 874 700 L 870 699 L 868 697 L 865 697 L 863 695 L 859 694 L 855 691 L 849 690 L 845 687 L 841 687 L 837 684 L 833 684 L 832 683 L 830 683 L 828 681 L 825 681 L 819 678 L 812 677 L 807 674 L 801 674 L 798 672 L 792 671 L 791 670 L 786 670 L 778 667 L 772 667 L 765 664 L 755 664 L 747 661 L 736 661 L 735 660 L 728 660 L 727 659 L 723 659 L 722 658 L 713 658 L 712 657 L 695 657 L 694 656 L 683 656 L 682 655 L 532 655 L 531 654 L 530 655 L 514 655 L 513 654 L 506 655 L 505 654 L 483 654 Z " fill="#000000" fill-rule="evenodd"/>
<path d="M 0 654 L 0 1212 L 1 1213 L 292 1213 L 293 1212 L 296 1212 L 301 1210 L 314 1210 L 315 1209 L 319 1209 L 323 1207 L 330 1207 L 336 1204 L 345 1203 L 350 1200 L 354 1200 L 358 1197 L 364 1196 L 366 1194 L 370 1193 L 374 1190 L 376 1190 L 380 1187 L 384 1186 L 386 1184 L 394 1180 L 397 1177 L 403 1174 L 407 1170 L 417 1163 L 434 1145 L 436 1141 L 448 1125 L 448 1123 L 450 1121 L 451 1117 L 454 1113 L 454 1110 L 458 1103 L 458 1100 L 461 1095 L 461 1089 L 464 1083 L 464 1074 L 465 1073 L 465 1068 L 466 1067 L 467 1057 L 468 1056 L 468 1020 L 467 1019 L 467 1013 L 465 1009 L 464 997 L 461 992 L 461 989 L 458 984 L 458 981 L 455 977 L 455 975 L 452 971 L 451 967 L 448 964 L 443 955 L 438 950 L 434 944 L 414 927 L 409 925 L 407 923 L 403 922 L 400 919 L 397 919 L 393 916 L 391 916 L 386 913 L 383 913 L 377 910 L 371 909 L 368 906 L 368 904 L 370 902 L 374 901 L 377 898 L 380 897 L 388 890 L 389 890 L 415 863 L 415 861 L 421 853 L 421 851 L 424 847 L 425 842 L 431 830 L 431 825 L 432 824 L 432 821 L 434 818 L 435 803 L 436 802 L 436 786 L 435 785 L 435 771 L 434 770 L 434 762 L 431 757 L 431 752 L 428 748 L 428 744 L 424 736 L 422 734 L 422 732 L 420 728 L 410 713 L 393 695 L 392 695 L 386 689 L 382 687 L 370 678 L 366 677 L 362 674 L 360 674 L 353 670 L 351 670 L 347 667 L 345 667 L 340 664 L 334 664 L 329 661 L 318 660 L 315 658 L 312 658 L 311 657 L 301 657 L 293 654 L 272 654 L 271 653 L 4 653 L 3 652 Z M 136 950 L 138 948 L 141 948 L 142 949 L 202 949 L 203 948 L 208 948 L 209 949 L 254 949 L 255 950 L 270 951 L 277 954 L 281 954 L 287 957 L 290 957 L 295 961 L 297 961 L 301 964 L 304 965 L 321 981 L 323 984 L 323 986 L 326 989 L 327 993 L 330 998 L 330 1002 L 332 1004 L 332 1006 L 333 1007 L 333 1016 L 334 1017 L 335 1025 L 336 1026 L 336 1037 L 335 1038 L 335 1043 L 334 1044 L 334 1048 L 333 1049 L 333 1056 L 330 1061 L 330 1064 L 326 1070 L 326 1073 L 323 1076 L 320 1082 L 315 1087 L 315 1088 L 306 1096 L 302 1098 L 299 1101 L 295 1102 L 292 1105 L 288 1106 L 286 1108 L 280 1109 L 274 1112 L 266 1112 L 263 1114 L 259 1114 L 258 1115 L 138 1115 L 136 1113 Z M 136 751 L 139 748 L 140 749 L 260 749 L 265 752 L 271 753 L 273 755 L 277 755 L 282 759 L 284 759 L 288 762 L 297 771 L 298 774 L 300 776 L 300 778 L 303 781 L 303 786 L 306 792 L 306 814 L 303 821 L 303 826 L 301 828 L 299 833 L 294 840 L 284 850 L 276 854 L 274 856 L 268 857 L 266 859 L 264 859 L 263 860 L 258 860 L 255 862 L 251 862 L 250 863 L 229 863 L 228 864 L 138 864 L 136 862 Z " fill="#000000" fill-rule="evenodd"/>
<path d="M 608 172 L 607 173 L 481 173 L 480 174 L 480 582 L 481 584 L 480 585 L 480 590 L 479 591 L 481 593 L 609 593 L 611 591 L 610 589 L 610 176 L 611 175 Z " fill="#000000" fill-rule="evenodd"/>
<path d="M 807 166 L 801 169 L 796 169 L 795 170 L 791 170 L 785 173 L 780 173 L 775 176 L 772 176 L 765 180 L 762 180 L 758 183 L 755 183 L 752 186 L 749 186 L 746 189 L 742 190 L 727 200 L 724 203 L 720 205 L 711 214 L 710 214 L 684 241 L 682 244 L 682 246 L 677 251 L 675 254 L 675 256 L 672 259 L 671 262 L 669 264 L 669 266 L 665 271 L 665 273 L 662 277 L 661 282 L 659 284 L 658 289 L 655 294 L 655 297 L 652 302 L 652 306 L 648 317 L 648 322 L 645 329 L 645 337 L 644 338 L 644 343 L 642 347 L 642 356 L 641 357 L 641 378 L 640 379 L 640 383 L 641 384 L 642 421 L 645 429 L 645 437 L 648 443 L 648 449 L 651 455 L 652 462 L 654 464 L 655 469 L 658 473 L 659 479 L 661 481 L 661 483 L 665 489 L 665 492 L 668 495 L 671 502 L 684 521 L 690 527 L 690 528 L 717 554 L 721 556 L 729 563 L 731 563 L 739 569 L 743 570 L 746 573 L 748 573 L 752 576 L 755 576 L 757 578 L 761 579 L 766 582 L 772 583 L 777 586 L 781 586 L 787 589 L 791 589 L 792 590 L 795 590 L 803 593 L 814 593 L 822 596 L 882 596 L 890 593 L 900 593 L 901 592 L 907 592 L 910 590 L 920 589 L 922 587 L 924 587 L 925 586 L 930 586 L 934 583 L 937 583 L 945 579 L 948 579 L 950 577 L 954 576 L 958 573 L 960 573 L 965 570 L 967 570 L 972 566 L 974 566 L 981 560 L 983 560 L 991 553 L 1000 547 L 1017 530 L 1024 520 L 1029 515 L 1032 509 L 1035 506 L 1035 504 L 1041 495 L 1041 493 L 1045 489 L 1045 486 L 1048 483 L 1048 480 L 1051 476 L 1053 470 L 1055 468 L 1055 463 L 1058 459 L 1059 452 L 1062 447 L 1062 442 L 1059 440 L 1057 440 L 1053 438 L 1048 438 L 1043 435 L 1038 435 L 1031 432 L 1025 432 L 1014 428 L 1009 428 L 1004 425 L 998 425 L 992 422 L 982 421 L 975 418 L 970 418 L 964 415 L 960 415 L 957 413 L 953 413 L 950 416 L 950 418 L 947 422 L 947 425 L 944 430 L 943 434 L 941 436 L 939 441 L 937 443 L 937 445 L 929 457 L 913 473 L 907 477 L 899 481 L 894 482 L 892 484 L 886 485 L 883 487 L 880 487 L 879 488 L 844 488 L 841 486 L 834 485 L 828 482 L 826 482 L 821 478 L 819 478 L 811 471 L 810 471 L 793 453 L 792 450 L 790 448 L 790 446 L 786 441 L 786 439 L 783 435 L 782 430 L 780 428 L 780 423 L 776 413 L 776 403 L 775 402 L 774 393 L 773 392 L 773 373 L 774 372 L 774 366 L 775 365 L 775 360 L 776 359 L 776 350 L 777 349 L 777 346 L 779 343 L 780 335 L 783 330 L 783 327 L 786 323 L 786 320 L 789 317 L 790 313 L 793 310 L 798 301 L 810 289 L 817 284 L 820 283 L 822 281 L 826 280 L 828 278 L 831 278 L 838 275 L 848 274 L 849 273 L 858 273 L 859 272 L 882 275 L 885 277 L 891 278 L 895 281 L 897 281 L 907 287 L 912 292 L 913 292 L 930 310 L 930 312 L 936 320 L 937 324 L 939 326 L 941 332 L 944 334 L 947 334 L 951 331 L 957 331 L 965 327 L 970 327 L 976 324 L 980 324 L 985 321 L 990 321 L 991 320 L 993 320 L 995 318 L 1003 317 L 1008 314 L 1014 314 L 1018 311 L 1024 311 L 1025 310 L 1027 310 L 1029 308 L 1037 307 L 1042 304 L 1048 304 L 1050 303 L 1052 300 L 1052 295 L 1048 288 L 1048 285 L 1046 283 L 1045 278 L 1043 276 L 1041 272 L 1041 270 L 1036 263 L 1034 258 L 1022 242 L 1020 238 L 1014 232 L 1012 228 L 997 213 L 991 209 L 986 204 L 979 200 L 972 194 L 969 193 L 964 189 L 962 189 L 960 187 L 956 186 L 954 184 L 950 182 L 948 182 L 944 179 L 941 179 L 938 177 L 932 176 L 927 173 L 922 173 L 917 170 L 906 169 L 903 167 L 900 167 L 899 166 L 889 166 L 888 165 L 878 164 L 877 163 L 830 163 L 829 164 L 825 164 L 820 166 Z " fill="#000000" fill-rule="evenodd"/>
<path d="M 1807 100 L 1806 101 L 1806 171 L 1804 173 L 1743 173 L 1742 172 L 1739 175 L 1740 176 L 1740 185 L 1739 186 L 1739 196 L 1740 197 L 1740 213 L 1739 214 L 1740 215 L 1740 239 L 1739 240 L 1739 242 L 1740 243 L 1739 245 L 1740 247 L 1739 248 L 1740 250 L 1740 264 L 1739 265 L 1739 269 L 1741 271 L 1744 271 L 1745 270 L 1804 270 L 1806 272 L 1806 484 L 1807 485 L 1807 492 L 1808 493 L 1809 502 L 1810 503 L 1810 511 L 1812 514 L 1812 518 L 1813 519 L 1814 525 L 1816 528 L 1816 531 L 1820 536 L 1820 538 L 1822 540 L 1823 544 L 1833 556 L 1837 562 L 1838 562 L 1845 569 L 1849 571 L 1855 576 L 1858 577 L 1862 580 L 1864 580 L 1868 583 L 1872 584 L 1874 586 L 1877 586 L 1882 589 L 1886 589 L 1887 590 L 1890 590 L 1898 593 L 1906 593 L 1914 596 L 1961 596 L 1962 595 L 1969 595 L 1973 593 L 1980 593 L 1981 592 L 1984 592 L 1987 590 L 1996 589 L 2001 586 L 2005 586 L 2007 584 L 2012 583 L 2014 581 L 2018 579 L 2020 579 L 2023 576 L 2025 576 L 2034 569 L 2036 569 L 2041 564 L 2041 522 L 2042 521 L 2042 518 L 2041 517 L 2041 507 L 2042 506 L 2041 481 L 2040 480 L 2038 480 L 2034 483 L 2024 488 L 2021 488 L 2015 491 L 2010 491 L 2009 492 L 2001 493 L 2000 494 L 1976 494 L 1969 491 L 1963 491 L 1958 488 L 1954 487 L 1941 475 L 1941 473 L 1938 470 L 1937 468 L 1937 463 L 1934 459 L 1934 450 L 1933 449 L 1933 440 L 1932 439 L 1932 272 L 1934 270 L 2040 270 L 2042 266 L 2041 264 L 2041 176 L 2042 175 L 2039 172 L 2037 173 L 1934 173 L 1931 170 L 1931 144 L 1932 143 L 1932 119 L 1931 118 L 1932 101 L 1931 100 Z " fill="#000000" fill-rule="evenodd"/>
<path d="M 1558 30 L 1556 32 L 1556 589 L 1555 590 L 1555 592 L 1558 594 L 1561 594 L 1562 593 L 1685 593 L 1687 594 L 1689 592 L 1689 31 L 1688 30 Z " fill="#000000" fill-rule="evenodd"/>
<path d="M 1104 30 L 1102 32 L 1102 588 L 1101 589 L 1101 592 L 1103 594 L 1113 594 L 1114 593 L 1222 593 L 1223 594 L 1227 593 L 1229 594 L 1232 592 L 1232 411 L 1235 409 L 1239 413 L 1242 419 L 1251 429 L 1252 432 L 1259 439 L 1268 452 L 1275 459 L 1278 465 L 1283 470 L 1288 478 L 1296 486 L 1301 494 L 1312 506 L 1315 512 L 1322 519 L 1328 528 L 1336 537 L 1338 541 L 1344 547 L 1354 561 L 1359 566 L 1363 573 L 1369 579 L 1374 587 L 1380 593 L 1525 593 L 1526 592 L 1512 577 L 1509 572 L 1498 560 L 1490 549 L 1485 544 L 1480 536 L 1472 528 L 1466 519 L 1453 505 L 1447 496 L 1439 488 L 1434 480 L 1423 468 L 1422 465 L 1410 452 L 1404 443 L 1396 435 L 1391 427 L 1383 419 L 1377 410 L 1366 398 L 1363 393 L 1353 382 L 1347 373 L 1343 369 L 1344 367 L 1364 348 L 1364 347 L 1383 328 L 1383 327 L 1387 323 L 1388 323 L 1389 321 L 1430 280 L 1430 279 L 1447 262 L 1447 261 L 1462 246 L 1462 245 L 1497 210 L 1497 209 L 1505 202 L 1505 201 L 1529 176 L 1529 174 L 1528 173 L 1382 173 L 1365 191 L 1362 196 L 1345 214 L 1342 219 L 1324 238 L 1316 249 L 1298 267 L 1298 268 L 1291 275 L 1288 280 L 1269 300 L 1261 311 L 1251 321 L 1249 325 L 1240 334 L 1240 335 L 1234 341 L 1233 341 L 1231 339 L 1231 334 L 1232 333 L 1232 34 L 1233 32 L 1231 30 Z " fill="#000000" fill-rule="evenodd"/>
<path d="M 311 40 L 306 40 L 301 37 L 294 37 L 288 34 L 272 33 L 271 32 L 261 31 L 260 30 L 2 30 L 0 32 L 0 592 L 3 594 L 5 593 L 82 593 L 83 594 L 84 593 L 135 593 L 136 592 L 136 407 L 138 405 L 141 405 L 142 406 L 240 406 L 241 405 L 252 405 L 253 404 L 268 404 L 269 403 L 274 403 L 278 401 L 290 400 L 296 397 L 302 397 L 307 394 L 311 394 L 317 391 L 323 390 L 327 387 L 330 387 L 334 384 L 337 384 L 341 381 L 345 380 L 348 377 L 350 377 L 358 371 L 360 371 L 368 364 L 370 364 L 377 357 L 383 353 L 402 332 L 418 308 L 418 306 L 421 302 L 421 300 L 425 293 L 425 290 L 428 286 L 428 282 L 431 278 L 431 274 L 434 266 L 434 261 L 435 260 L 436 250 L 437 249 L 437 244 L 438 243 L 438 228 L 439 227 L 438 182 L 437 181 L 437 178 L 434 170 L 434 164 L 431 159 L 431 154 L 430 153 L 430 151 L 428 149 L 428 145 L 425 141 L 424 135 L 422 133 L 421 129 L 415 120 L 415 118 L 411 114 L 410 111 L 404 103 L 398 97 L 397 94 L 383 80 L 378 77 L 367 67 L 365 67 L 352 58 L 348 57 L 344 53 L 341 53 L 337 50 L 334 50 L 330 47 L 325 46 L 320 43 L 317 43 Z M 139 131 L 141 132 L 231 132 L 232 133 L 235 133 L 240 135 L 246 135 L 252 138 L 257 138 L 261 141 L 265 142 L 268 145 L 270 145 L 282 155 L 282 156 L 293 167 L 294 170 L 297 174 L 297 176 L 300 180 L 300 183 L 303 187 L 303 193 L 306 199 L 307 226 L 306 227 L 306 236 L 304 240 L 303 248 L 301 251 L 300 256 L 296 261 L 296 263 L 294 265 L 293 268 L 287 276 L 280 283 L 267 292 L 265 292 L 261 295 L 256 296 L 254 298 L 252 298 L 251 299 L 245 299 L 240 302 L 213 303 L 212 304 L 138 304 L 136 302 L 136 134 Z " fill="#000000" fill-rule="evenodd"/>
<path d="M 500 27 L 495 32 L 494 32 L 485 42 L 482 47 L 482 49 L 479 53 L 479 58 L 476 63 L 476 88 L 479 95 L 479 99 L 482 103 L 482 105 L 485 109 L 486 112 L 491 118 L 492 118 L 502 127 L 506 128 L 511 132 L 514 132 L 520 135 L 526 135 L 527 136 L 531 136 L 532 137 L 552 137 L 557 135 L 558 136 L 560 135 L 566 135 L 572 132 L 575 132 L 581 128 L 583 128 L 599 113 L 604 106 L 604 104 L 607 100 L 607 97 L 610 91 L 610 62 L 607 57 L 607 52 L 605 50 L 602 43 L 597 36 L 592 31 L 587 28 L 582 23 L 580 23 L 576 20 L 573 20 L 569 17 L 563 17 L 562 16 L 555 15 L 554 14 L 530 14 L 524 17 L 519 17 L 515 20 L 510 21 L 508 23 Z " fill="#000000" fill-rule="evenodd"/>
</svg>