<svg width="62" height="117" viewBox="0 0 62 117" fill="none" xmlns="http://www.w3.org/2000/svg">
<g filter="url(#filter0_d_379_123)">
<path fill-rule="evenodd" clip-rule="evenodd" d="M29 7C40.598 7 50 16.402 50 28C50 29.4157 49.8599 30.7986 49.5929 32.1358C47.7394 46.1032 29 104.5 29 104.5C29 104.5 13.2569 48.4717 9.34456 35.4096C8.47551 33.1054 8 30.6083 8 28C8 16.402 17.402 7 29 7Z" fill="#303030"/>
</g>
<path d="M37 28C37 23.5817 33.4183 20 29 20C24.5817 20 21 23.5817 21 28C21 32.4183 24.5817 36 29 36C33.4183 36 37 32.4183 37 28Z" fill="white"/>
<defs>
<filter id="filter0_d_379_123" x="0.5" y="0.5" width="61" height="116.5" filterUnits="userSpaceOnUse" color-interpolation-filters="sRGB">
<feFlood flood-opacity="0" result="BackgroundImageFix"/>
<feColorMatrix in="SourceAlpha" type="matrix" values="0 0 0 0 0 0 0 0 0 0 0 0 0 0 0 0 0 0 127 0" result="hardAlpha"/>
<feOffset dx="2" dy="3"/>
<feGaussianBlur stdDeviation="4.75"/>
<feComposite in2="hardAlpha" operator="out"/>
<feColorMatrix type="matrix" values="0 0 0 0 0.331731 0 0 0 0 0.331731 0 0 0 0 0.331731 0 0 0 0.9 0"/>
<feBlend mode="normal" in2="BackgroundImageFix" result="effect1_dropShadow_379_123"/>
<feBlend mode="normal" in="SourceGraphic" in2="effect1_dropShadow_379_123" result="shape"/>
</filter>
</defs>
</svg>
