<svg width="26" height="26" viewBox="0 0 26 26" fill="none" xmlns="http://www.w3.org/2000/svg">
<path d="M25.9313 9.33402C25.8496 9.09338 25.6992 8.88193 25.4986 8.72578C25.2981 8.56963 25.0562 8.47561 24.8029 8.45534L17.3915 7.86652L14.1844 0.768156C14.0823 0.539532 13.9161 0.34535 13.7061 0.209045C13.496 0.0727399 13.251 0.000137624 13.0005 1.95466e-07C12.7501 -0.000137234 12.505 0.0721961 12.2948 0.208271C12.0845 0.344345 11.9182 0.538345 11.8158 0.766856L8.60868 7.86652L1.19734 8.45534C0.948332 8.47506 0.710278 8.5661 0.511659 8.71755C0.31304 8.86901 0.162266 9.07447 0.0773757 9.30936C-0.00751454 9.54425 -0.0229269 9.79862 0.0329828 10.042C0.0888924 10.2855 0.213756 10.5076 0.392637 10.6819L5.86957 16.0203L3.93256 24.4068C3.87374 24.6607 3.89259 24.9263 3.98666 25.1694C4.08073 25.4124 4.24568 25.6215 4.4601 25.7696C4.67452 25.9177 4.92852 25.998 5.18912 26C5.44973 26.0019 5.70492 25.9256 5.92157 25.7807L13.0001 21.0624L20.0787 25.7807C20.3001 25.9277 20.5612 26.0034 20.827 25.9976C21.0927 25.9918 21.3503 25.9047 21.5651 25.7481C21.7799 25.5916 21.9415 25.373 22.0284 25.1218C22.1152 24.8706 22.123 24.5989 22.0508 24.3431L19.673 16.0242L25.5699 10.7183C25.956 10.37 26.0977 9.82666 25.9313 9.33402Z" fill="#E0AB0F"/>
</svg>
